<?xml version="1.0" encoding="UTF-8" standalone="no"?><!DOCTYPE svg PUBLIC "-//W3C//DTD SVG 1.1//EN" "http://www.w3.org/Graphics/SVG/1.1/DTD/svg11.dtd"><svg width="100%" height="100%" viewBox="0 0 648 612" version="1.1" xmlns="http://www.w3.org/2000/svg" xmlns:xlink="http://www.w3.org/1999/xlink" xml:space="preserve" xmlns:serif="http://www.serif.com/" style="fill-rule:evenodd;clip-rule:evenodd;stroke-linejoin:round;stroke-miterlimit:2;"><g><path d="M271.573,140.358c30.387,-25.024 74.24,-25.024 104.627,-0c66.113,54.445 162.808,134.076 198.062,163.109c12.567,10.349 28.279,16.119 44.557,16.361l0.007,0.001c11.791,0.175 22.474,-6.923 26.881,-17.862c4.406,-10.938 1.625,-23.46 -6.995,-31.506c-46.039,-42.97 -205.873,-192.148 -271.47,-253.372c-24.413,-22.785 -62.298,-22.785 -86.711,0c-65.597,61.224 -225.43,210.402 -271.469,253.372c-8.621,8.046 -11.401,20.568 -6.995,31.506c4.406,10.939 15.089,18.037 26.88,17.862l0.007,-0.001c16.278,-0.242 31.99,-6.012 44.557,-16.361l198.062,-163.109Z" style="fill:#fff;"/><path d="M247.283,314.046c-51.169,33.778 -91.971,96.64 -91.971,150.577c-0,33.087 14.31,63.866 37.293,88.671c32.772,35.369 83.237,58.204 130.415,58.204c47.177,0 97.643,-22.835 130.415,-58.204c22.983,-24.805 37.293,-55.584 37.293,-88.671c0,-53.937 -40.802,-116.799 -91.971,-150.577c11.333,-11.832 21.721,-25.098 26.071,-35.733c7.719,-18.87 2.83,-33.599 -11.158,-42.249c-4.261,-2.635 -11.901,-5.453 -22.215,-7.297c-16.581,-2.965 -42.505,-4.539 -68.435,-4.539c-25.93,-0 -51.854,1.574 -68.435,4.539c-10.314,1.844 -17.955,4.662 -22.215,7.297c-13.989,8.65 -18.877,23.379 -11.158,42.249c4.35,10.635 14.738,23.901 26.071,35.733l0,0Zm33.783,86.593c-0,-16.404 42.794,-15.604 74.045,-15.604c47.069,-0 80.776,30.911 80.776,76.149c0,34.256 -20.56,74.921 -109.384,72.765c-37.146,-0.901 -72.296,-14.097 -68.997,-22.91c2.969,-7.929 10.982,2.11 37.023,5.728c14.674,2.039 10.988,-6.875 6.731,-7.637c-59.227,-10.602 -89.376,-33.189 -87.508,-42.001c3.233,-15.248 32.055,17.698 79.094,21c12.537,0.88 10.561,-7.108 5.89,-7.636c-51.756,-5.849 -92.033,-35.364 -88.35,-47.729c4.267,-14.323 29.217,18.965 80.777,26.728c20.544,3.093 14.912,-6.281 10.097,-6.809c-48.073,-5.27 -83.827,-36.812 -79.094,-44.738c6.116,-10.242 29.014,11.181 50.486,19.091c12.845,4.733 43.767,9.055 43.754,-11.455c-0.007,-9.629 -35.34,7.941 -35.34,-14.942Z" style="fill:#fff;"/></g></svg>