<?xml version="1.0" encoding="UTF-8" standalone="no"?><!DOCTYPE svg PUBLIC "-//W3C//DTD SVG 1.1//EN" "http://www.w3.org/Graphics/SVG/1.1/DTD/svg11.dtd"><svg width="100%" height="100%" viewBox="0 0 167 167" version="1.1" xmlns="http://www.w3.org/2000/svg" xmlns:xlink="http://www.w3.org/1999/xlink" xml:space="preserve" xmlns:serif="http://www.serif.com/" style="fill-rule:evenodd;clip-rule:evenodd;stroke-linecap:round;stroke-linejoin:round;stroke-miterlimit:1.5;"><g><rect x="-0" y="0" width="166.667" height="166.667" style="fill:none;"/><g><path d="M133.177,54.323c0,-11.498 -9.335,-20.833 -20.833,-20.833l-33.099,-0c-11.498,-0 -20.834,9.335 -20.834,20.833l0,24.792c0,11.498 9.336,20.833 20.834,20.833l33.099,-0c11.498,-0 20.833,-9.335 20.833,-20.833l0,-24.792Z" style="fill:#955842;stroke:#45271c;stroke-width:8.33px;"/><path d="M95.794,94.964c0,-3.668 -2.978,-6.646 -6.646,-6.646l-16.614,-0c-3.668,-0 -6.646,2.978 -6.646,6.646l0,9.968c0,3.668 2.978,6.646 6.646,6.646l16.614,0c3.668,0 6.646,-2.978 6.646,-6.646c0,0 0,-9.968 0,-9.968Z" style="fill:#45271c;"/></g></g></svg>