<?xml version="1.0" encoding="UTF-8" standalone="no"?><!DOCTYPE svg PUBLIC "-//W3C//DTD SVG 1.1//EN" "http://www.w3.org/Graphics/SVG/1.1/DTD/svg11.dtd"><svg width="100%" height="100%" viewBox="0 0 167 167" version="1.1" xmlns="http://www.w3.org/2000/svg" xmlns:xlink="http://www.w3.org/1999/xlink" xml:space="preserve" xmlns:serif="http://www.serif.com/" style="fill-rule:evenodd;clip-rule:evenodd;stroke-linejoin:round;stroke-miterlimit:2;"><g><rect x="-0" y="-0" width="166.667" height="166.667" style="fill:none;"/><g><path d="M133.234,53.327c0,-11.498 -9.335,-20.834 -20.833,-20.834l-58.135,0c-11.499,0 -20.834,9.336 -20.834,20.834l0,24.868c0,11.498 9.335,20.833 20.834,20.833l58.135,0c11.498,0 20.833,-9.335 20.833,-20.833l0,-24.868Z" style="fill:#955842;"/><path d="M80.007,102.355l-0,1.663c-0,3.672 2.981,6.654 6.653,6.654l16.634,-0c3.672,-0 6.653,-2.982 6.653,-6.654l0,-1.663l6.654,-0c11.016,-0 19.96,-8.944 19.96,-19.961c0,0 0,-33.267 0,-33.267c0,-11.016 -8.944,-19.96 -19.96,-19.96c-0,-0 -66.535,-0 -66.535,-0c-11.016,-0 -19.96,8.944 -19.96,19.96l-0,33.267c-0,11.017 8.944,19.961 19.96,19.961l29.941,-0Zm29.94,-6.654l6.654,0c7.344,0 13.307,-5.962 13.307,-13.307l-0,-33.267c-0,-7.344 -5.963,-13.307 -13.307,-13.307l-66.535,0c-7.344,0 -13.307,5.963 -13.307,13.307c0,0 0,33.267 0,33.267c0,7.345 5.963,13.307 13.307,13.307l29.941,0l-0,-1.663c-0,-3.672 2.981,-6.653 6.653,-6.653l16.634,-0c3.672,-0 6.653,2.981 6.653,6.653l0,1.663Z" style="fill:#45271c;"/></g></g></svg>