<?xml version="1.0" encoding="UTF-8" standalone="no"?><!DOCTYPE svg PUBLIC "-//W3C//DTD SVG 1.1//EN" "http://www.w3.org/Graphics/SVG/1.1/DTD/svg11.dtd"><svg width="100%" height="100%" viewBox="0 0 167 167" version="1.1" xmlns="http://www.w3.org/2000/svg" xmlns:xlink="http://www.w3.org/1999/xlink" xml:space="preserve" xmlns:serif="http://www.serif.com/" style="fill-rule:evenodd;clip-rule:evenodd;stroke-linejoin:round;stroke-miterlimit:2;"><g><rect x="0" y="0" width="166.667" height="166.667" style="fill:none;"/><path d="M125,59.375c0,-5.174 -4.201,-9.375 -9.375,-9.375l-64.583,0c-5.175,0 -9.375,4.201 -9.375,9.375c-0,5.174 4.2,9.375 9.375,9.375c-0,0 64.583,0 64.583,0c5.174,0 9.375,-4.201 9.375,-9.375Z" style="fill:#45271c;"/><path d="M125,83.333c0,-5.174 -4.201,-9.375 -9.375,-9.375c0,0 -64.583,0 -64.583,0c-5.175,0 -9.375,4.201 -9.375,9.375c-0,5.175 4.2,9.375 9.375,9.375l64.583,0c5.174,0 9.375,-4.2 9.375,-9.375Z" style="fill:#45271c;"/><path d="M91.667,107.292c-0,-5.175 -4.201,-9.375 -9.375,-9.375l-31.25,-0c-5.175,-0 -9.375,4.2 -9.375,9.375c-0,5.174 4.2,9.375 9.375,9.375l31.25,-0c5.174,-0 9.375,-4.201 9.375,-9.375Z" style="fill:#955842;"/></g></svg>