<?xml version="1.0" encoding="UTF-8" standalone="no"?><!DOCTYPE svg PUBLIC "-//W3C//DTD SVG 1.1//EN" "http://www.w3.org/Graphics/SVG/1.1/DTD/svg11.dtd"><svg width="100%" height="100%" viewBox="0 0 167 167" version="1.1" xmlns="http://www.w3.org/2000/svg" xmlns:xlink="http://www.w3.org/1999/xlink" xml:space="preserve" xmlns:serif="http://www.serif.com/" style="fill-rule:evenodd;clip-rule:evenodd;stroke-linejoin:round;stroke-miterlimit:2;"><g><rect x="-0" y="0" width="166.667" height="166.336" style="fill:none;"/><g><path d="M109.738,103.122l6.863,0c0.586,0 1.166,-0.025 1.74,-0.075c1.829,-0.158 3.185,-1.769 3.027,-3.594c-0.159,-1.826 -1.773,-3.18 -3.602,-3.021c-0.384,0.033 -0.773,0.05 -1.165,0.05l-6.863,-0c-1.836,-0 -3.327,1.488 -3.327,3.32c0,1.832 1.491,3.32 3.327,3.32Zm-59.672,-6.639l-0,-0.001c-1.427,-0 -2.803,-0.224 -4.092,-0.64c-1.747,-0.564 -3.624,0.394 -4.189,2.138c-0.565,1.743 0.395,3.616 2.142,4.18c1.935,0.624 3.998,0.962 6.139,0.962l3.118,0c1.836,0 3.326,-1.488 3.326,-3.32c0,-1.832 -1.49,-3.32 -3.326,-3.32l-3.084,-0l-0.034,0.001Zm16.425,6.639l8.316,0l0,-6.64l-8.316,-0c-1.836,-0 -3.327,1.488 -3.327,3.32c-0,1.832 1.491,3.32 3.327,3.32Zm65.584,-7.342c2.075,-2.539 3.534,-5.597 4.154,-8.948c0.334,-1.802 -0.862,-3.535 -2.667,-3.867c-1.806,-0.333 -3.542,0.86 -3.876,2.662c-0.412,2.23 -1.386,4.266 -2.767,5.956c-1.16,1.42 -0.947,3.514 0.476,4.672c1.423,1.158 3.52,0.945 4.68,-0.475Zm-95.378,-12.516c0.041,-0.235 0.062,-0.486 0.062,-0.755c0,-1.833 -1.491,-3.32 -3.327,-3.32c-1.836,-0 -3.326,1.487 -3.326,3.32c-0,0.403 -0,0.685 -0,0.685c-0,0 3.326,3.327 3.326,3.327l-3.326,-3.32c-0,3.165 0.741,6.158 2.059,8.817c0.814,1.642 2.811,2.316 4.457,1.503c1.646,-0.812 2.321,-2.805 1.507,-4.448c-0.878,-1.77 -1.37,-3.764 -1.37,-5.872l-0.062,0.063Zm99.864,-10.298l0,-8.301c0,-1.832 -1.491,-3.32 -3.327,-3.32c-1.836,0 -3.326,1.488 -3.326,3.32l-0,8.301c-0,1.832 1.49,3.32 3.326,3.32c1.836,-0 3.327,-1.488 3.327,-3.32Zm-106.455,-12.038l-0,8.3c-0,1.833 1.49,3.32 3.326,3.32c1.836,0 3.327,-1.487 3.327,-3.32l0,-8.3c0,-1.832 -1.491,-3.32 -3.327,-3.32c-1.836,-0 -3.326,1.488 -3.326,3.32Zm99.802,-10.913l-0,-0c-0,-0 -0,0.576 -0,1.37c-0,1.832 1.49,3.32 3.326,3.32c1.836,-0 3.327,-1.488 3.327,-3.32l0,-1.385c0,-3.461 -0.887,-6.716 -2.444,-9.553c-0.882,-1.608 -2.906,-2.197 -4.516,-1.317c-1.61,0.88 -2.202,2.9 -1.319,4.507c1.037,1.89 1.626,4.058 1.626,6.363l-0,0.015Zm-95.829,-11.939c-1.962,2.616 -3.295,5.729 -3.776,9.114c-0.257,1.814 1.01,3.496 2.828,3.753c1.818,0.257 3.503,-1.008 3.76,-2.822c0.32,-2.253 1.208,-4.325 2.514,-6.066c1.101,-1.467 0.801,-3.549 -0.669,-4.648c-1.47,-1.098 -3.556,-0.798 -4.657,0.669Zm82.522,-7.996l-0.042,-0.001l-3.77,0c-1.836,0 -3.327,1.488 -3.327,3.32c0,1.833 1.491,3.32 3.327,3.32l3.812,0c1.233,0 2.427,0.168 3.561,0.482c1.769,0.49 3.604,-0.546 4.095,-2.312c0.491,-1.766 -0.547,-3.597 -2.316,-4.087c-1.7,-0.471 -3.491,-0.723 -5.34,-0.723l-0,0.001Zm-60.366,-0.001l-6.169,0c-0.87,0 -1.727,0.056 -2.567,0.164c-1.821,0.234 -3.109,1.9 -2.875,3.717c0.235,1.818 1.904,3.103 3.725,2.869c0.562,-0.072 1.135,-0.11 1.717,-0.11l6.169,0c1.836,0 3.326,-1.487 3.326,-3.32c0,-1.832 -1.49,-3.32 -3.326,-3.32Zm21.623,0l-8.316,0c-1.836,0 -3.327,1.488 -3.327,3.32c-0,1.833 1.491,3.32 3.327,3.32l8.316,0c1.837,0 3.327,-1.487 3.327,-3.32c0,-1.832 -1.49,-3.32 -3.327,-3.32Zm21.624,0l-8.317,0c-1.836,0 -3.326,1.488 -3.326,3.32c-0,1.833 1.49,3.32 3.326,3.32l8.317,0c1.836,0 3.327,-1.487 3.327,-3.32c-0,-1.832 -1.491,-3.32 -3.327,-3.32Z" style="fill:#45271c;"/><path d="M109.947,94.822c0,-3.665 -2.981,-6.64 -6.653,-6.64l-16.634,-0c-3.672,-0 -6.653,2.975 -6.653,6.64l-0,9.96c-0,3.665 2.981,6.64 6.653,6.64l16.634,0c3.672,0 6.653,-2.975 6.653,-6.64c0,0 0,-9.96 0,-9.96Zm-5.213,1.66c0,-1.833 -1.49,-3.32 -3.326,-3.32l-12.862,-0c-1.836,-0 -3.326,1.487 -3.326,3.32l-0,6.64c-0,1.833 1.49,3.32 3.326,3.32l12.862,0c1.836,0 3.326,-1.487 3.326,-3.32l0,-6.64Z" style="fill:#45271c;"/></g></g></svg>