<?xml version="1.0" encoding="UTF-8" standalone="no"?><!DOCTYPE svg PUBLIC "-//W3C//DTD SVG 1.1//EN" "http://www.w3.org/Graphics/SVG/1.1/DTD/svg11.dtd"><svg width="100%" height="100%" viewBox="0 0 167 167" version="1.1" xmlns="http://www.w3.org/2000/svg" xmlns:xlink="http://www.w3.org/1999/xlink" xml:space="preserve" xmlns:serif="http://www.serif.com/" style="fill-rule:evenodd;clip-rule:evenodd;stroke-linejoin:round;stroke-miterlimit:2;"><g><rect x="0" y="0" width="166.667" height="166.667" style="fill:none;"/><g><path d="M54.959,89.384c-10.475,-0.275 -18.098,-8.758 -17.095,-19.168c1.019,-10.582 10.569,-19.174 21.313,-19.174c10.745,-0 16.839,9.824 17.621,19.174c0.147,1.757 -0.563,15.695 -1.184,17.334l-0.001,0c-2.071,12.404 -9.03,27.809 -30.665,28.075c0.212,-2.199 0.471,-4.892 0.621,-6.45c1.923,-1.541 9.074,-5.8 9.39,-19.791Z" style="fill:#45271c;"/><path d="M107.024,89.384c-10.475,-0.275 -18.094,-8.758 -17.086,-19.168c1.024,-10.582 10.578,-19.174 21.323,-19.174c10.744,-0 16.834,9.824 17.611,19.174c0.146,1.757 -0.571,15.695 -1.193,17.334l0,0c-2.077,12.404 -9.044,27.809 -30.679,28.075c0.213,-2.199 0.474,-4.892 0.624,-6.45c1.924,-1.541 9.077,-5.8 9.4,-19.791Z" style="fill:#955842;"/></g></g></svg>