<?xml version="1.0" encoding="UTF-8" standalone="no"?><!DOCTYPE svg PUBLIC "-//W3C//DTD SVG 1.1//EN" "http://www.w3.org/Graphics/SVG/1.1/DTD/svg11.dtd"><svg width="100%" height="100%" viewBox="0 0 167 167" version="1.1" xmlns="http://www.w3.org/2000/svg" xmlns:xlink="http://www.w3.org/1999/xlink" xml:space="preserve" xmlns:serif="http://www.serif.com/" style="fill-rule:evenodd;clip-rule:evenodd;stroke-linejoin:round;stroke-miterlimit:2;"><g><rect x="0" y="0" width="166.667" height="166.667" style="fill:none;"/><g><path d="M94.169,72.497c-7.716,-7.717 -20.247,-7.717 -27.964,0c0,0 -20.973,20.973 -20.973,20.973c-7.717,7.717 -7.717,20.248 0,27.965c7.717,7.716 20.247,7.716 27.964,-0c0,-0 20.973,-20.974 20.973,-20.974c7.717,-7.717 7.717,-20.247 0,-27.964Zm-6.991,6.991c3.859,3.859 3.859,10.124 0,13.982c0,0 -20.973,20.974 -20.973,20.974c-3.858,3.858 -10.123,3.858 -13.982,-0c-3.858,-3.859 -3.858,-10.124 0,-13.983c0,0 20.973,-20.973 20.973,-20.973c3.859,-3.858 10.124,-3.858 13.982,0Z" style="fill:none;stroke:#45271c;stroke-width:4.17px;"/><path d="M94.169,72.497c-7.716,-7.717 -20.247,-7.717 -27.964,0c0,0 -20.973,20.973 -20.973,20.973c-7.717,7.717 -7.717,20.248 0,27.965c7.717,7.716 20.247,7.716 27.964,-0c0,-0 20.973,-20.974 20.973,-20.974c7.717,-7.717 7.717,-20.247 0,-27.964Zm-6.991,6.991c3.859,3.859 3.859,10.124 0,13.982c0,0 -20.973,20.974 -20.973,20.974c-3.858,3.858 -10.123,3.858 -13.982,-0c-3.858,-3.859 -3.858,-10.124 0,-13.983c0,0 20.973,-20.973 20.973,-20.973c3.859,-3.858 10.124,-3.858 13.982,0Z" style="fill:#45271c;"/><path d="M121.435,45.232c-7.717,-7.717 -20.248,-7.717 -27.965,0c0,0 -20.973,20.973 -20.973,20.973c-7.717,7.717 -7.717,20.248 0,27.964c7.717,7.717 20.247,7.717 27.964,0c0,0 20.974,-20.973 20.974,-20.973c7.716,-7.717 7.716,-20.247 -0,-27.964Zm-6.991,6.991c3.858,3.859 3.858,10.124 -0,13.982c-0,0 -20.974,20.973 -20.974,20.973c-3.858,3.859 -10.123,3.859 -13.982,0c-3.858,-3.858 -3.858,-10.123 0,-13.982c0,0 20.973,-20.973 20.973,-20.973c3.859,-3.858 10.124,-3.858 13.983,0Z" style="fill:none;stroke:#955842;stroke-width:4.17px;"/><path d="M121.435,45.232c-7.717,-7.717 -20.248,-7.717 -27.965,0c0,0 -20.973,20.973 -20.973,20.973c-7.717,7.717 -7.717,20.248 0,27.964c7.717,7.717 20.247,7.717 27.964,0c0,0 20.974,-20.973 20.974,-20.973c7.716,-7.717 7.716,-20.247 -0,-27.964Zm-6.991,6.991c3.858,3.859 3.858,10.124 -0,13.982c-0,0 -20.974,20.973 -20.974,20.973c-3.858,3.859 -10.123,3.859 -13.982,0c-3.858,-3.858 -3.858,-10.123 0,-13.982c0,0 20.973,-20.973 20.973,-20.973c3.859,-3.858 10.124,-3.858 13.983,0Z" style="fill:#955842;"/><clipPath id="_clip1"><path d="M78.944,57.272l-24.469,24.468l15.226,15.226l24.468,-24.469l-15.225,-15.225Z"/></clipPath><g clip-path="url(#_clip1)"><path d="M94.169,72.497c-7.716,-7.717 -20.247,-7.717 -27.964,0c0,0 -20.973,20.973 -20.973,20.973c-7.717,7.717 -7.717,20.248 0,27.965c7.717,7.716 20.247,7.716 27.964,-0c0,-0 20.973,-20.974 20.973,-20.974c7.717,-7.717 7.717,-20.247 0,-27.964Zm-6.991,6.991c3.859,3.859 3.859,10.124 0,13.982c0,0 -20.973,20.974 -20.973,20.974c-3.858,3.858 -10.123,3.858 -13.982,-0c-3.858,-3.859 -3.858,-10.124 0,-13.983c0,0 20.973,-20.973 20.973,-20.973c3.859,-3.858 10.124,-3.858 13.982,0Z" style="fill:none;stroke:#45271c;stroke-width:4.17px;"/><path d="M94.169,72.497c-7.716,-7.717 -20.247,-7.717 -27.964,0c0,0 -20.973,20.973 -20.973,20.973c-7.717,7.717 -7.717,20.248 0,27.965c7.717,7.716 20.247,7.716 27.964,-0c0,-0 20.973,-20.974 20.973,-20.974c7.717,-7.717 7.717,-20.247 0,-27.964Zm-6.991,6.991c3.859,3.859 3.859,10.124 0,13.982c0,0 -20.973,20.974 -20.973,20.974c-3.858,3.858 -10.123,3.858 -13.982,-0c-3.858,-3.859 -3.858,-10.124 0,-13.983c0,0 20.973,-20.973 20.973,-20.973c3.859,-3.858 10.124,-3.858 13.982,0Z" style="fill:#45271c;"/></g></g></g></svg>