<?xml version="1.0" encoding="UTF-8" standalone="no"?><!DOCTYPE svg PUBLIC "-//W3C//DTD SVG 1.1//EN" "http://www.w3.org/Graphics/SVG/1.1/DTD/svg11.dtd"><svg width="100%" height="100%" viewBox="0 0 167 167" version="1.1" xmlns="http://www.w3.org/2000/svg" xmlns:xlink="http://www.w3.org/1999/xlink" xml:space="preserve" xmlns:serif="http://www.serif.com/" style="fill-rule:evenodd;clip-rule:evenodd;stroke-linejoin:round;stroke-miterlimit:2;"><g><rect x="0" y="-0" width="166.667" height="166.449" style="fill:none;"/><g><path d="M93.917,94.952c-1.007,0.38 0.818,6.776 1.911,6.379c1.201,-0.436 2.372,-0.933 3.509,-1.486c1.651,-0.804 2.337,-2.794 1.533,-4.443c-0.805,-1.648 -2.798,-2.334 -4.448,-1.53c-0.814,0.396 -1.65,0.757 -2.505,1.08Zm-26.419,4.98c0.968,0.464 1.958,0.888 2.969,1.267c1.27,0.478 3.131,-5.908 1.977,-6.359c-0.7,-0.273 -1.388,-0.572 -2.062,-0.896c-1.655,-0.795 -3.644,-0.099 -4.44,1.554c-0.796,1.652 -0.099,3.639 1.556,4.434Zm45.646,-11.782c1.41,-1.978 2.626,-4.099 3.623,-6.335c0.748,-1.675 -0.007,-3.641 -1.685,-4.387c-1.677,-0.746 -3.645,0.008 -4.392,1.683c-0.816,1.83 -1.812,3.566 -2.966,5.185c-1.065,1.494 -0.715,3.57 0.78,4.634c1.496,1.063 3.575,0.714 4.64,-0.78Zm-63.185,-6.143c1.013,2.239 2.243,4.353 3.662,6.318c1.074,1.487 3.155,1.823 4.644,0.751c1.489,-1.073 1.826,-3.151 0.752,-4.639c-1.16,-1.606 -2.166,-3.335 -2.994,-5.165c-0.756,-1.671 -2.728,-2.415 -4.401,-1.66c-1.673,0.755 -2.418,2.724 -1.663,4.395Zm69.879,-17.419c-0.163,-2.48 -0.57,-4.886 -1.197,-7.196c-0.481,-1.77 -2.309,-2.817 -4.082,-2.338c-1.772,0.48 -2.82,2.306 -2.34,4.076c0.513,1.892 0.847,3.862 0.98,5.892c0.12,1.83 1.705,3.218 3.537,3.098c1.832,-0.12 3.222,-1.702 3.102,-3.532Zm-71.728,-7.58c-0.659,2.317 -1.093,4.722 -1.279,7.189c-0.138,1.828 1.236,3.425 3.067,3.563c1.831,0.138 3.429,-1.235 3.568,-3.064c0.152,-2.015 0.506,-3.98 1.044,-5.873c0.502,-1.764 -0.525,-3.603 -2.291,-4.104c-1.767,-0.5 -3.608,0.525 -4.109,2.289Zm61.595,-15.348c-1.691,-1.755 -3.554,-3.34 -5.559,-4.728c-1.509,-1.045 -3.583,-0.67 -4.63,0.837c-1.046,1.507 -0.67,3.579 0.839,4.624c1.643,1.137 3.17,2.436 4.555,3.874c1.273,1.321 3.381,1.362 4.704,0.091c1.323,-1.271 1.364,-3.376 0.091,-4.698Zm-46.883,-4.955c-2.026,1.372 -3.904,2.939 -5.608,4.674c-1.286,1.309 -1.266,3.414 0.045,4.698c1.311,1.284 3.419,1.264 4.705,-0.045c1.395,-1.42 2.932,-2.704 4.591,-3.827c1.52,-1.029 1.917,-3.097 0.887,-4.615c-1.03,-1.517 -3.101,-1.914 -4.62,-0.885Zm24.348,-6.075c-2.04,-0.214 -4.126,-0.258 -6.241,-0.12c-0.355,0.023 -0.709,0.052 -1.061,0.085c-1.828,0.172 -3.172,1.794 -3,3.62c0.173,1.825 1.797,3.167 3.625,2.995c0.289,-0.027 0.579,-0.05 0.871,-0.069c1.733,-0.114 3.441,-0.078 5.112,0.097c1.826,0.192 3.464,-1.134 3.655,-2.957c0.192,-1.824 -1.135,-3.46 -2.961,-3.651Z" style="fill:#45271c;"/><path d="M98.449,95.007c-0,-3.668 -2.981,-6.645 -6.654,-6.645l-16.633,0c-3.672,0 -6.654,2.977 -6.654,6.645l0,9.967c0,3.667 2.982,6.645 6.654,6.645l16.633,-0c3.673,-0 6.654,-2.978 6.654,-6.645c-0,-0 -0,-9.967 -0,-9.967Zm-5.213,1.661c-0,-1.834 -1.491,-3.322 -3.327,-3.322l-12.861,-0c-1.836,-0 -3.327,1.488 -3.327,3.322l0,6.645c0,1.833 1.491,3.322 3.327,3.322l12.861,0c1.836,0 3.327,-1.489 3.327,-3.322l-0,-6.645Z" style="fill:#45271c;"/></g></g></svg>