<?xml version="1.0" encoding="UTF-8" standalone="no"?><!DOCTYPE svg PUBLIC "-//W3C//DTD SVG 1.1//EN" "http://www.w3.org/Graphics/SVG/1.1/DTD/svg11.dtd"><svg width="100%" height="100%" viewBox="0 0 167 167" version="1.1" xmlns="http://www.w3.org/2000/svg" xmlns:xlink="http://www.w3.org/1999/xlink" xml:space="preserve" xmlns:serif="http://www.serif.com/" style="fill-rule:evenodd;clip-rule:evenodd;stroke-linejoin:round;stroke-miterlimit:2;"><g><rect x="0" y="0" width="166.667" height="166.583" style="fill:none;"/><g><path d="M116.601,66.708c-0,-18.352 -14.899,-33.251 -33.251,-33.251l-0.033,0c-18.352,0 -33.251,14.899 -33.251,33.251c-0,18.352 14.899,33.251 33.251,33.251l0.033,-0c18.352,-0 33.251,-14.899 33.251,-33.251Z" style="fill:#955842;"/><path d="M68.363,100.088l0,4.858c0,3.671 2.981,6.65 6.653,6.65l16.634,0c3.672,0 6.654,-2.979 6.654,-6.65l-0,-4.858c12.741,-5.722 21.623,-18.523 21.623,-33.38c0,-20.187 -16.397,-36.576 -36.594,-36.576c-20.196,0 -36.594,16.389 -36.594,36.576c0,14.857 8.883,27.658 21.624,33.38Zm29.586,-7.262c9.141,-5.124 15.325,-14.905 15.325,-26.118c-0,-16.516 -13.416,-29.926 -29.941,-29.926c-16.524,0 -29.94,13.41 -29.94,29.926c-0,11.213 6.183,20.994 15.324,26.118c0.894,-2.619 3.378,-4.505 6.299,-4.505l16.634,-0c2.922,-0 5.406,1.886 6.299,4.505Z" style="fill:#45271c;"/></g></g></svg>