<?xml version="1.0" encoding="UTF-8" standalone="no"?><!DOCTYPE svg PUBLIC "-//W3C//DTD SVG 1.1//EN" "http://www.w3.org/Graphics/SVG/1.1/DTD/svg11.dtd"><svg width="100%" height="100%" viewBox="0 0 410 167" version="1.1" xmlns="http://www.w3.org/2000/svg" xmlns:xlink="http://www.w3.org/1999/xlink" xml:space="preserve" xmlns:serif="http://www.serif.com/" style="fill-rule:evenodd;clip-rule:evenodd;stroke-linejoin:round;stroke-miterlimit:2;"><g><g><path d="M152.33,29.57c-0,-8.407 -6.826,-15.233 -15.233,-15.233l-121.864,-0c-8.407,-0 -15.233,6.826 -15.233,15.233l-0,121.864c-0,8.407 6.826,15.233 15.233,15.233l121.864,-0c8.407,-0 15.233,-6.826 15.233,-15.233l-0,-121.864Z" style="fill:#ffeafa;"/><clipPath id="_clip1"><path d="M152.33,29.57c-0,-8.407 -6.826,-15.233 -15.233,-15.233l-121.864,-0c-8.407,-0 -15.233,6.826 -15.233,15.233l-0,121.864c-0,8.407 6.826,15.233 15.233,15.233l121.864,-0c8.407,-0 15.233,-6.826 15.233,-15.233l-0,-121.864Z"/></clipPath><g clip-path="url(#_clip1)"><path d="M8.961,16.129c-0,-0.989 -0.803,-1.792 -1.793,-1.792l-14.336,-0c-0.99,-0 -1.793,0.803 -1.793,1.792l0,148.746c0,0.989 0.803,1.792 1.793,1.792l14.336,-0c0.99,-0 1.793,-0.803 1.793,-1.792l-0,-148.746Z" style="fill:#d4009b;"/><path d="M161.29,16.129c0,-0.989 -0.803,-1.792 -1.792,-1.792l-14.337,-0c-0.989,-0 -1.792,0.803 -1.792,1.792l0,148.746c0,0.989 0.803,1.792 1.792,1.792l14.337,-0c0.989,-0 1.792,-0.803 1.792,-1.792l0,-148.746Z" style="fill:#d4009b;"/></g><g><rect x="28.036" y="14.337" width="17.921" height="152.33" style="fill:#d4009b;"/><rect x="24.452" y="90.502" width="103.425" height="12" style="fill:#d4009b;"/><rect x="106.372" y="14.337" width="17.921" height="152.33" style="fill:#d4009b;"/></g><path d="M118.917,0.717c-0,-0.396 -0.321,-0.717 -0.717,-0.717l-84.07,-0c-0.396,-0 -0.717,0.321 -0.717,0.717l-0,5.735c-0,0.395 0.321,0.716 0.717,0.716l84.07,0c0.396,0 0.717,-0.321 0.717,-0.716l-0,-5.735Z" style="fill:#d4009b;"/><path d="M40.581,0.717c0,-0.396 -0.321,-0.717 -0.717,-0.717l-5.734,-0c-0.396,-0 -0.717,0.321 -0.717,0.717l-0,16.487c-0,0.396 0.321,0.717 0.717,0.717l5.734,0c0.396,0 0.717,-0.321 0.717,-0.717l0,-16.487Z" style="fill:#d4009b;"/><path d="M118.917,0.717c-0,-0.396 -0.321,-0.717 -0.717,-0.717l-5.735,-0c-0.395,-0 -0.717,0.321 -0.717,0.717l0,16.487c0,0.396 0.322,0.717 0.717,0.717l5.735,0c0.396,0 0.717,-0.321 0.717,-0.717l-0,-16.487Z" style="fill:#d4009b;"/></g><g><text x="185.654px" y="66.124px" style="font-family:'SukiYakiPersonalUse', 'Suki Yaki - Personal Use';font-size:152.381px;fill:#d4009b;">Andr<tspan x="317.311px " y="66.124px ">e</tspan>a&apos;s</text><text x="223.998px" y="151.59px" style="font-family:'SukiYakiPersonalUse', 'Suki Yaki - Personal Use';font-size:152.381px;fill:#d4009b;">Tr<tspan x="278.246px " y="151.59px ">u</tspan>nk</text></g></g></svg>