<?xml version="1.0" encoding="UTF-8" standalone="no"?>
<!DOCTYPE svg PUBLIC "-//W3C//DTD SVG 1.1//EN" "http://www.w3.org/Graphics/SVG/1.1/DTD/svg11.dtd">
<svg width="100%" height="100%" viewBox="0 0 99 40" version="1.1" xmlns="http://www.w3.org/2000/svg" xmlns:xlink="http://www.w3.org/1999/xlink" xml:space="preserve" xmlns:serif="http://www.serif.com/" style="fill-rule:evenodd;clip-rule:evenodd;stroke-linejoin:round;stroke-miterlimit:2;">
    <g transform="matrix(1,0,0,1,-50.5,-1350)">
        <g transform="matrix(0.0856761,0,0,0.0856761,27.0116,1320.57)">
            <path d="M700.867,426.336C700.867,402.785 681.747,383.664 658.196,383.664L316.825,383.664C293.274,383.664 274.154,402.785 274.154,426.336L274.154,767.706C274.154,791.257 293.274,810.378 316.825,810.378L658.196,810.378C681.747,810.378 700.867,791.257 700.867,767.706L700.867,426.336Z" style="fill:none;"/>
            <clipPath id="_clip1">
                <path d="M700.867,426.336C700.867,402.785 681.747,383.664 658.196,383.664L316.825,383.664C293.274,383.664 274.154,402.785 274.154,426.336L274.154,767.706C274.154,791.257 293.274,810.378 316.825,810.378L658.196,810.378C681.747,810.378 700.867,791.257 700.867,767.706L700.867,426.336Z"/>
            </clipPath>
            <g clip-path="url(#_clip1)">
                <g transform="matrix(0.117647,0,0,1,216.8,5.70655e-14)">
                    <path d="M700.867,388.684C700.867,385.914 681.747,383.664 658.196,383.664L316.825,383.664C293.274,383.664 274.154,385.914 274.154,388.684L274.154,805.357C274.154,808.128 293.274,810.378 316.825,810.378L658.196,810.378C681.747,810.378 700.867,808.128 700.867,805.357L700.867,388.684Z" style="fill:white;"/>
                </g>
                <g transform="matrix(0.117647,0,0,1,643.513,-5.70655e-14)">
                    <path d="M700.867,388.684C700.867,385.914 681.747,383.664 658.196,383.664L316.825,383.664C293.274,383.664 274.154,385.914 274.154,388.684L274.154,805.357C274.154,808.128 293.274,810.378 316.825,810.378L658.196,810.378C681.747,810.378 700.867,808.128 700.867,805.357L700.867,388.684Z" style="fill:white;"/>
                </g>
            </g>
        </g>
        <g transform="matrix(0.0860215,0,0,0.0860215,26.6992,1320.44)">
            <g transform="matrix(0.117175,0,0,0.995985,322.782,1.54045)">
                <rect x="274.154" y="383.664" width="426.713" height="426.713" style="fill:white;"/>
            </g>
            <g transform="matrix(0.676231,0,0,0.0784629,159.515,566.061)">
                <rect x="274.154" y="383.664" width="426.713" height="426.713" style="fill:white;"/>
            </g>
            <g transform="matrix(0.117175,0,0,0.995985,541.339,1.54045)">
                <rect x="274.154" y="383.664" width="426.713" height="426.713" style="fill:white;"/>
            </g>
        </g>
        <g transform="matrix(0.0480908,0,0,0.00403182,45.3348,1348.45)">
            <path d="M700.867,426.336C700.867,402.785 699.264,383.664 697.29,383.664L277.731,383.664C275.757,383.664 274.154,402.785 274.154,426.336L274.154,767.706C274.154,791.257 275.757,810.378 277.731,810.378L697.29,810.378C699.264,810.378 700.867,791.257 700.867,767.706L700.867,426.336Z" style="fill:white;"/>
        </g>
        <g transform="matrix(0.00403182,0,0,0.0100795,57.4137,1346.13)">
            <path d="M700.867,400.733C700.867,391.312 681.747,383.664 658.196,383.664L316.825,383.664C293.274,383.664 274.154,391.312 274.154,400.733L274.154,793.309C274.154,802.729 293.274,810.378 316.825,810.378L658.196,810.378C681.747,810.378 700.867,802.729 700.867,793.309L700.867,400.733Z" style="fill:white;"/>
        </g>
        <g transform="matrix(0.00403182,0,0,0.0100795,76.2143,1346.13)">
            <path d="M700.867,400.733C700.867,391.312 681.747,383.664 658.196,383.664L316.825,383.664C293.274,383.664 274.154,391.312 274.154,400.733L274.154,793.309C274.154,802.729 293.274,810.378 316.825,810.378L658.196,810.378C681.747,810.378 700.867,802.729 700.867,793.309L700.867,400.733Z" style="fill:white;"/>
        </g>
        <g transform="matrix(0.571429,0,0,0.571429,23.9454,1287.55)">
            <g transform="matrix(5.53762,0,0,5.53762,-617.957,-643.78)">
                <path d="M134.251,139.804C134.239,139.908 134.436,139.896 134.667,139.954C134.713,139.965 134.805,139.965 134.944,139.965C134.933,140 134.921,140.034 134.91,140.058C134.713,140.451 134.644,141.19 134.644,141.248C134.644,141.294 134.678,141.398 134.69,141.502C134.701,141.606 134.725,141.548 134.829,141.537C134.921,141.525 134.956,141.456 135.002,141.34C135.048,141.225 135.083,141.04 135.302,140.266C135.326,140.185 135.36,140.069 135.395,139.954C135.661,139.954 135.973,139.931 136.238,139.919C136.215,140.358 136.158,141.132 136.158,141.364C136.158,141.71 136.204,141.78 136.227,141.884C136.238,141.953 136.423,142.161 136.504,142.161C136.561,142.149 136.596,142.115 136.596,142.115C136.677,142.011 136.85,141.78 136.861,141.387C136.861,141.132 136.908,140.52 136.954,139.885C137.013,139.873 137.036,139.873 137.036,139.873C137.162,139.85 137.162,139.838 137.162,139.747C137.173,139.724 137.093,139.701 136.978,139.689C137.036,138.95 137.093,138.221 137.116,137.967C137.162,137.47 137.162,137.308 137.15,137.181C137.127,136.915 137.001,136.835 136.873,136.731C136.815,136.684 136.757,136.696 136.723,136.742C136.434,136.742 136.192,137.077 135.984,137.447C135.823,137.736 135.326,138.961 135.06,139.655L134.366,139.655C134.239,139.666 134.262,139.701 134.251,139.804ZM135.487,139.655C135.765,138.799 136.169,137.632 136.273,137.355C136.342,137.17 136.481,137.066 136.596,137.008C136.515,137.389 136.365,138.302 136.365,138.302C136.342,138.614 136.273,139.308 136.25,139.655L135.487,139.655Z" style="fill:white;fill-rule:nonzero;"/>
                <path d="M137.487,140.521C137.487,140.521 137.533,140.751 137.648,140.82C137.763,140.89 137.798,140.878 137.879,140.89C137.948,140.89 138.063,140.82 138.086,140.671C138.167,140.406 138.457,139.481 138.55,139.146C138.596,138.984 138.827,138.51 138.931,138.614C138.966,138.649 138.769,138.973 138.689,139.354C138.596,139.77 138.677,139.967 138.746,140.244C138.827,140.544 138.977,140.671 139.081,140.717C139.185,140.763 139.254,140.797 139.254,140.797C139.833,140.971 139.994,140.348 140.144,139.839C140.19,139.678 140.167,139.574 140.109,139.516C140.052,139.458 139.948,139.805 139.948,139.805C139.751,140.44 139.589,140.591 139.473,140.591C139.381,140.591 139.335,140.498 139.335,140.498C139.254,140.394 139.369,139.689 139.45,139.331C139.612,138.591 139.416,138.372 139.185,138.279C138.977,138.198 138.758,138.349 138.573,138.649C138.422,138.892 138.248,139.446 138.121,139.863C138.098,139.724 138.167,139.446 138.179,139.354C138.283,138.926 138.272,138.822 138.272,138.649C138.272,138.464 138.098,138.279 137.948,138.256C137.752,138.221 137.648,138.557 137.648,138.557C137.602,138.672 137.533,138.776 137.475,139.192C137.417,139.608 137.417,140.221 137.487,140.521Z" style="fill:white;fill-rule:nonzero;"/>
                <path d="M140.687,141.005C140.942,141.028 141.104,140.867 141.22,140.67C141.231,140.786 141.243,140.843 141.277,140.878C141.3,140.901 141.324,140.89 141.381,140.971C141.439,141.04 141.462,141.098 141.566,141.098C141.623,141.086 141.658,141.051 141.658,141.051C141.738,140.982 141.715,140.832 141.727,140.531C141.739,140.092 142.074,138.208 142.12,137.827C142.166,137.434 142.166,137.307 142.143,137.203C142.097,137.006 141.993,136.949 141.866,136.856C141.739,136.764 141.623,136.926 141.6,137.03C141.543,137.295 141.37,138.07 141.37,138.07C141.37,138.197 141.347,138.382 141.323,138.567C141.254,138.451 141.093,138.405 141.093,138.405C141.093,138.405 140.467,138.255 140.063,139.156C139.717,139.965 140.098,140.971 140.687,141.005L140.687,141.005ZM140.629,139.907C140.653,139.121 140.838,138.659 140.919,138.624C141.069,138.567 141.243,138.844 141.289,139.029C141.289,139.087 141.277,139.133 141.277,139.168C141.277,139.283 141.266,139.503 141.254,139.734C141.208,140.036 141.104,140.695 140.85,140.741C140.85,140.741 140.595,140.648 140.629,139.909L140.629,139.907Z" style="fill:white;fill-rule:nonzero;"/>
                <path d="M142.121,140.462C142.121,140.462 142.167,140.693 142.271,140.763C142.386,140.832 142.375,140.867 142.456,140.878C142.525,140.89 142.652,140.82 142.675,140.67C142.756,140.393 143.045,139.469 143.161,139.145C143.219,138.984 143.439,138.51 143.554,138.626C143.589,138.66 143.635,138.66 143.485,138.972C143.485,138.972 143.462,139.03 143.462,139.088C143.462,139.145 143.473,139.226 143.543,139.249C143.577,139.261 143.589,139.296 143.693,139.249C143.796,139.203 143.992,138.903 144.027,138.741C144.096,138.441 143.958,138.348 143.808,138.291C143.601,138.21 143.381,138.348 143.195,138.649C143.045,138.891 142.848,139.446 142.721,139.862C142.709,139.711 142.767,139.446 142.79,139.342C142.883,138.926 142.894,138.811 142.894,138.637C142.894,138.464 142.721,138.279 142.571,138.256C142.375,138.221 142.271,138.533 142.271,138.533C142.213,138.66 142.179,138.776 142.144,139.134C142.087,139.561 142.063,140.162 142.121,140.462Z" style="fill:white;fill-rule:nonzero;"/>
                <path d="M144.167,140.278C144.374,140.728 144.743,140.786 145.183,140.797C145.831,140.786 146.143,140.209 146.246,139.665C146.269,139.538 146.211,139.527 146.211,139.515C146.211,139.504 146.2,139.493 146.165,139.481C146.143,139.47 146.097,139.618 146.097,139.618C145.773,140.694 145.287,140.533 145.287,140.533C144.871,140.51 144.732,140.012 144.732,139.653C144.905,139.665 145.067,139.561 145.16,139.458C145.218,139.389 145.264,139.342 145.368,138.972C145.472,138.59 145.264,138.452 145.264,138.452C145.264,138.452 144.72,138.187 144.235,139.053C144.235,139.053 143.878,139.642 144.166,140.278L144.167,140.278ZM144.744,139.435C144.767,139.319 144.79,139.25 144.79,139.25C144.905,138.833 145.01,138.74 145.079,138.728C145.079,138.728 145.16,138.728 145.183,138.821C145.183,138.821 145.206,138.972 145.067,139.261C144.998,139.4 144.859,139.446 144.744,139.435Z" style="fill:white;fill-rule:nonzero;"/>
                <path d="M146.593,141.04C146.882,141.098 147.091,140.751 147.206,140.416C147.264,140.635 147.345,140.913 147.564,141.005C147.668,141.051 147.726,141.04 147.726,141.04C148.315,141.04 148.524,140.358 148.673,139.85C148.719,139.688 148.696,139.584 148.638,139.526C148.581,139.468 148.478,139.815 148.478,139.815C148.141,140.959 147.829,140.774 147.829,140.774C147.737,140.682 147.887,139.699 147.979,139.341C148.13,138.752 148.014,138.717 148.014,138.544C148.014,138.37 147.876,138.255 147.691,138.174C147.449,138.07 147.38,138.37 147.38,138.37C147.38,138.405 147.368,138.44 147.356,138.486L147.264,138.405C147.264,138.405 146.72,138.266 146.235,139.133C145.808,139.896 146.028,140.924 146.593,141.04ZM146.65,139.93C146.801,139.156 146.986,138.694 147.079,138.682C147.16,138.671 147.253,138.948 147.241,139.098C147.23,139.133 147.23,139.168 147.218,139.202C147.172,139.341 147.183,139.514 147.183,139.688L147.172,139.676C147.172,139.676 147.079,140.786 146.755,140.82C146.755,140.82 146.5,140.716 146.65,139.93Z" style="fill:white;fill-rule:nonzero;"/>
                <path d="M148.927,136.025C148.904,136.002 148.858,135.991 148.789,135.991C148.755,136.002 148.72,136.025 148.709,136.048C148.697,136.071 148.685,136.093 148.685,136.093C148.662,136.174 148.662,136.197 148.639,136.325C148.628,136.394 148.616,136.452 148.605,136.509L148.605,136.683C148.616,136.694 148.628,136.706 148.639,136.718C148.662,136.741 148.685,136.741 148.685,136.741C148.709,136.752 148.732,136.752 148.743,136.741C148.755,136.729 148.778,136.729 148.789,136.718C148.789,136.706 148.801,136.694 148.812,136.683C148.939,136.556 148.962,136.325 148.962,136.151C148.973,136.093 148.962,136.048 148.927,136.025Z" style="fill:white;fill-rule:nonzero;"/>
                <path d="M148.894,141.33C148.951,141.642 149.182,141.826 149.378,141.884C149.587,141.941 150.003,141.918 150.21,141.63C150.36,141.423 150.464,141.168 150.36,140.671C150.337,140.509 150.28,140.359 150.21,140.209C150.603,139.954 150.973,139.746 151.007,139.723C151.077,139.677 151.065,139.573 151.054,139.538C151.042,139.515 151.042,139.457 150.892,139.573C150.811,139.63 150.476,139.781 150.107,139.989C149.98,139.735 149.841,139.526 149.818,139.434C149.772,139.26 149.667,138.844 149.841,138.578C149.841,138.578 149.922,138.417 150.003,138.44C150.095,138.463 149.98,138.74 150.026,138.798C150.06,138.844 150.095,138.844 150.118,138.844C150.187,138.844 150.21,138.798 150.21,138.798C150.245,138.74 150.279,138.567 150.221,138.405C150.187,138.313 150.106,138.233 150.003,138.175C149.945,138.14 149.887,138.117 149.83,138.117C149.586,138.117 149.344,138.348 149.344,138.348C149.217,138.463 149.102,138.74 149.113,138.983C149.113,139.214 149.217,139.654 149.217,139.654C149.263,139.804 149.413,140.093 149.528,140.359C149.379,140.463 149.24,140.579 149.136,140.706C149.136,140.706 148.848,141.03 148.894,141.33L148.894,141.33ZM149.379,140.798C149.448,140.74 149.528,140.671 149.632,140.602C149.655,140.671 149.678,140.74 149.678,140.798C149.725,141.099 149.748,141.296 149.575,141.457C149.494,141.538 149.402,141.561 149.321,141.561C149.229,141.561 149.148,141.515 149.125,141.446C149.079,141.307 148.985,141.157 149.379,140.798Z" style="fill:white;fill-rule:nonzero;"/>
            </g>
            <g transform="matrix(5.53762,0,0,5.53762,-601.852,-607.884)">
                <path d="M134.771,136.983C134.84,136.995 135.048,136.995 135.302,136.995C135.221,137.365 135.071,138.289 135.071,138.289C135.048,138.624 134.967,139.353 134.967,139.688C134.956,140.011 134.898,141.051 134.898,141.329C134.898,141.676 134.909,141.756 134.956,141.849C134.979,141.895 134.99,141.941 135.059,142.034C135.117,142.115 135.117,142.149 135.209,142.149C135.267,142.138 135.313,142.092 135.313,142.092C135.394,141.999 135.555,141.768 135.567,141.375C135.578,140.809 135.775,138.44 135.821,137.954C135.868,137.457 135.879,137.295 135.856,137.168C135.844,137.087 135.821,137.018 135.798,136.972C136.365,136.937 136.944,136.903 136.944,136.903C137.058,136.88 137.058,136.868 137.058,136.776C137.058,136.684 135.856,136.673 135.613,136.684L135.498,136.684C135.186,136.684 134.586,136.673 134.482,136.684C134.366,136.696 134.389,136.73 134.378,136.834C134.366,136.937 134.551,136.926 134.771,136.983Z" style="fill:white;fill-rule:nonzero;"/>
                <path d="M136.262,140.462C136.262,140.462 136.308,140.693 136.412,140.763C136.527,140.832 136.515,140.867 136.596,140.878C136.665,140.89 136.792,140.82 136.815,140.67C136.896,140.393 137.185,139.469 137.301,139.145C137.359,138.984 137.579,138.51 137.695,138.626C137.729,138.66 137.776,138.66 137.625,138.972C137.625,138.972 137.602,139.03 137.602,139.088C137.602,139.145 137.614,139.226 137.683,139.249C137.718,139.261 137.729,139.296 137.833,139.249C137.937,139.203 138.133,138.903 138.167,138.741C138.237,138.441 138.098,138.348 137.948,138.291C137.741,138.21 137.521,138.348 137.336,138.649C137.185,138.891 136.989,139.446 136.861,139.862C136.85,139.711 136.908,139.446 136.931,139.342C137.023,138.926 137.035,138.811 137.035,138.637C137.035,138.464 136.862,138.279 136.712,138.256C136.516,138.221 136.412,138.533 136.412,138.533C136.354,138.66 136.319,138.776 136.285,139.134C136.227,139.561 136.204,140.162 136.262,140.462Z" style="fill:white;fill-rule:nonzero;"/>
                <path d="M138.192,140.117C138.261,140.509 138.503,140.739 138.954,140.67C139.116,140.647 139.278,140.406 139.405,140.082L139.405,140.094C139.451,140.406 139.624,140.556 139.739,140.602C139.855,140.647 139.878,140.659 139.878,140.659C139.97,140.693 140.04,140.705 140.121,140.705C140.515,140.705 140.699,140.267 140.837,139.828C140.872,139.666 140.86,139.562 140.802,139.504C140.745,139.446 140.642,139.793 140.642,139.793C140.468,140.371 140.306,140.51 140.19,140.51C140.074,140.51 140.005,140.371 140.005,140.371C139.912,140.279 140.051,139.701 140.132,139.342C140.225,138.926 140.167,138.811 140.167,138.637C140.167,138.464 140.005,138.279 139.844,138.256C139.659,138.233 139.544,138.545 139.544,138.545C139.498,138.672 139.475,138.765 139.405,139.181C139.394,139.308 139.382,139.423 139.37,139.516C139.255,140.001 138.977,140.464 138.884,140.464C138.768,140.464 138.699,140.128 138.71,139.897C138.71,139.666 138.873,139.123 138.896,138.845C138.896,138.788 138.849,138.637 138.745,138.591C138.641,138.545 138.514,138.661 138.514,138.661C138.514,138.661 138.295,138.88 138.261,139.054C138.226,139.215 138.122,139.782 138.192,140.117Z" style="fill:white;fill-rule:nonzero;"/>
                <path d="M140.665,140.521C140.665,140.521 140.711,140.751 140.826,140.82C140.942,140.89 140.976,140.878 141.057,140.89C141.126,140.89 141.242,140.82 141.265,140.671C141.346,140.406 141.635,139.481 141.728,139.146C141.774,138.984 142.005,138.51 142.109,138.614C142.144,138.649 141.948,138.973 141.867,139.354C141.774,139.77 141.855,139.967 141.925,140.244C142.005,140.544 142.155,140.671 142.259,140.717C142.363,140.763 142.432,140.797 142.432,140.797C143.011,140.971 143.173,140.348 143.322,139.839C143.368,139.678 143.345,139.574 143.287,139.516C143.23,139.458 143.127,139.805 143.127,139.805C142.93,140.44 142.767,140.591 142.652,140.591C142.559,140.591 142.513,140.498 142.513,140.498C142.432,140.394 142.548,139.689 142.628,139.331C142.79,138.591 142.594,138.372 142.363,138.279C142.155,138.198 141.936,138.349 141.751,138.649C141.601,138.892 141.427,139.446 141.299,139.863C141.276,139.724 141.346,139.446 141.357,139.354C141.461,138.926 141.45,138.822 141.45,138.649C141.45,138.464 141.276,138.279 141.126,138.256C140.93,138.221 140.826,138.557 140.826,138.557C140.78,138.672 140.711,138.776 140.653,139.192C140.596,139.608 140.596,140.221 140.665,140.521Z" style="fill:white;fill-rule:nonzero;"/>
                <path d="M143.127,140.786C143.15,140.82 143.161,140.867 143.219,140.971C143.265,141.051 143.323,141.005 143.415,141.005C143.473,140.994 143.519,140.924 143.519,140.924C143.553,140.901 143.576,140.867 143.576,140.82C143.576,140.82 143.692,140.451 143.796,140.046L143.796,140.058C143.796,140.566 144.154,141.468 144.732,141.572C144.87,141.595 145.032,141.583 145.102,141.491C145.148,141.433 145.09,141.26 145.055,141.19C144.963,141.005 144.709,140.89 144.582,140.728C144.362,140.439 144.165,140.138 144.073,139.78C144.662,139.78 144.79,139.435 144.79,139.435C144.79,139.435 144.974,139.179 144.951,138.866C144.917,138.39 144.674,138.344 144.674,138.344C144.431,138.274 144.258,138.413 144.061,138.727C143.934,138.936 143.796,139.318 143.692,139.677C143.796,138.959 143.969,138.042 143.992,137.775C144.027,137.392 144.05,137.16 144.038,137.067C144.015,136.858 143.888,136.708 143.749,136.684C143.622,136.661 143.588,136.777 143.473,136.928C143.369,137.067 143.219,138.065 143.219,138.065C143.207,138.332 143.138,138.901 143.138,139.168C143.127,139.423 143.081,140.127 143.081,140.335C143.092,140.612 143.104,140.763 143.127,140.786ZM144.073,139.144C144.131,138.982 144.327,138.564 144.42,138.68C144.42,138.68 144.512,138.761 144.385,139.11C144.316,139.295 144.177,139.527 143.957,139.527C144.004,139.365 144.05,139.226 144.073,139.144Z" style="fill:white;fill-rule:nonzero;"/>
            </g>
        </g>
    </g>
</svg>
